{
  "accessors": [
    {
      "bufferView": 2,
      "componentType": 5126,
      "count": 65534,
      "max": [
        1.6605525016784668,
        1.7904764413833618,
        5.1500115394592285
      ],
      "min": [
        -9.336799621582031,
        -1.7559540271759033,
        -0.001394510269165039
      ],
      "type": "VEC3"
    },
    {
      "bufferView": 2,
      "byteOffset": 786408,
      "componentType": 5126,
      "count": 65534,
      "max": [
        1.0,
        1.0,
        1.0
      ],
      "min": [
        -1.0,
        -1.0,
        -1.0
      ],
      "type": "VEC3"
    },
    {
      "bufferView": 3,
      "componentType": 5126,
      "count": 65534,
      "max": [
        1.0,
        1.0,
        1.0,
        1.0
      ],
      "min": [
        0.9960784316062927,
        0.9960784316062927,
        0.9960784316062927,
        0.9960784316062927
      ],
      "type": "VEC4"
    },
    {
      "bufferView": 1,
      "componentType": 5126,
      "count": 65534,
      "max": [
        0.9993919134140015,
        0.9997528791427612
      ],
      "min": [
        0.0006589906988665462,
        0.0006589991971850395
      ],
      "type": "VEC2"
    },
    {
      "bufferView": 0,
      "componentType": 5125,
      "count": 145581,
      "type": "SCALAR"
    },
    {
      "bufferView": 2,
      "byteOffset": 1572816,
      "componentType": 5126,
      "count": 11684,
      "max": [
        -1.1317671537399292,
        1.8361395597457886,
        5.146974563598633
      ],
      "min": [
        -6.980274677276611,
        -1.4891271591186523,
        -0.001394510269165039
      ],
      "type": "VEC3"
    },
    {
      "bufferView": 2,
      "byteOffset": 1713024,
      "componentType": 5126,
      "count": 11684,
      "max": [
        1.0,
        1.0,
        1.0
      ],
      "min": [
        -1.0,
        -1.0,
        -1.0
      ],
      "type": "VEC3"
    },
    {
      "bufferView": 3,
      "byteOffset": 1048544,
      "componentType": 5126,
      "count": 11684,
      "max": [
        1.0,
        1.0,
        1.0,
        1.0
      ],
      "min": [
        1.0,
        1.0,
        1.0,
        1.0
      ],
      "type": "VEC4"
    },
    {
      "bufferView": 1,
      "byteOffset": 524272,
      "componentType": 5126,
      "count": 11684,
      "max": [
        0.99933922290802,
        0.999755859375
      ],
      "min": [
        0.0006589906988665462,
        0.0006589906988665462
      ],
      "type": "VEC2"
    },
    {
      "bufferView": 0,
      "byteOffset": 582324,
      "componentType": 5125,
      "count": 22467,
      "type": "SCALAR"
    },
    {
      "bufferView": 2,
      "byteOffset": 1853232,
      "componentType": 5126,
      "count": 4416,
      "max": [
        1.2246342897415161,
        2.1452784538269043,
        3.331028699874878
      ],
      "min": [
        -14.411503791809082,
        -8.064538955688477,
        0.04771924018859863
      ],
      "type": "VEC3"
    },
    {
      "bufferView": 2,
      "byteOffset": 1906224,
      "componentType": 5126,
      "count": 4416,
      "max": [
        1.0,
        1.0,
        1.7007723727147095e-06
      ],
      "min": [
        -1.0,
        -1.0,
        -1.2313686283960124e-06
      ],
      "type": "VEC3"
    },
    {
      "bufferView": 3,
      "byteOffset": 1235488,
      "componentType": 5126,
      "count": 4416,
      "max": [
        1.0,
        1.0,
        1.0,
        1.0
      ],
      "min": [
        1.0,
        1.0,
        1.0,
        1.0
      ],
      "type": "VEC4"
    },
    {
      "bufferView": 1,
      "byteOffset": 617744,
      "componentType": 5126,
      "count": 4416,
      "max": [
        0.999755859375,
        0.9989936351776123
      ],
      "min": [
        0.000244140625,
        0.000244140625
      ],
      "type": "VEC2"
    },
    {
      "bufferView": 0,
      "byteOffset": 672192,
      "componentType": 5125,
      "count": 6696,
      "type": "SCALAR"
    },
    {
      "bufferView": 2,
      "byteOffset": 1959216,
      "componentType": 5126,
      "count": 65532,
      "max": [
        2.3228659629821777,
        2.6507163047790527,
        5.1405158042907715
      ],
      "min": [
        -8.54189682006836,
        -12.0616455078125,
        1.070117712020874
      ],
      "type": "VEC3"
    },
    {
      "bufferView": 2,
      "byteOffset": 2745600,
      "componentType": 5126,
      "count": 65532,
      "max": [
        0.9996182322502136,
        0.9996180534362793,
        0.9958556294441223
      ],
      "min": [
        -0.9996209740638733,
        -0.9996201395988464,
        -0.979354739189148
      ],
      "type": "VEC3"
    },
    {
      "bufferView": 3,
      "byteOffset": 1306144,
      "componentType": 5126,
      "count": 65532,
      "max": [
        0.8039215803146362,
        0.9411764740943909,
        0.9411764740943909,
        1.0
      ],
      "min": [
        0.33725491166114807,
        0.3450980484485626,
        0.9176470637321472,
        0.9921568632125854
      ],
      "type": "VEC4"
    },
    {
      "bufferView": 1,
      "byteOffset": 653072,
      "componentType": 5126,
      "count": 65532,
      "max": [
        0.9987038969993591,
        0.999755859375
      ],
      "min": [
        0.000244140625,
        0.00024651913554407656
      ],
      "type": "VEC2"
    },
    {
      "bufferView": 0,
      "byteOffset": 698976,
      "componentType": 5125,
      "count": 179106,
      "type": "SCALAR"
    },
    {
      "bufferView": 2,
      "byteOffset": 3531984,
      "componentType": 5126,
      "count": 61292,
      "max": [
        1.5574008226394653,
        4.278952598571777,
        5.1405158042907715
      ],
      "min": [
        -7.889956951141357,
        -11.742288589477539,
        1.070117712020874
      ],
      "type": "VEC3"
    },
    {
      "bufferView": 2,
      "byteOffset": 4267488,
      "componentType": 5126,
      "count": 61292,
      "max": [
        0.9996187686920166,
        0.9996179938316345,
        0.9958562254905701
      ],
      "min": [
        -0.99961918592453,
        -0.9996187686920166,
        -0.9793552160263062
      ],
      "type": "VEC3"
    },
    {
      "bufferView": 3,
      "byteOffset": 2354656,
      "componentType": 5126,
      "count": 61292,
      "max": [
        0.8039215803146362,
        0.9411764740943909,
        0.9411764740943909,
        1.0
      ],
      "min": [
        0.33725491166114807,
        0.3529411852359772,
        0.9176470637321472,
        1.0
      ],
      "type": "VEC4"
    },
    {
      "bufferView": 1,
      "byteOffset": 1177328,
      "componentType": 5126,
      "count": 61292,
      "max": [
        0.9965035319328308,
        0.9997493624687195
      ],
      "min": [
        0.000244140625,
        0.000244140625
      ],
      "type": "VEC2"
    },
    {
      "bufferView": 0,
      "byteOffset": 1415400,
      "componentType": 5125,
      "count": 167214,
      "type": "SCALAR"
    },
    {
      "bufferView": 2,
      "byteOffset": 5002992,
      "componentType": 5126,
      "count": 65532,
      "max": [
        1.6605525016784668,
        1.5249698162078857,
        5.148368835449219
      ],
      "min": [
        -1.8818609714508057,
        -9.472381591796875,
        -0.003037393093109131
      ],
      "type": "VEC3"
    },
    {
      "bufferView": 2,
      "byteOffset": 5789376,
      "componentType": 5126,
      "count": 65532,
      "max": [
        1.0,
        1.0,
        1.0
      ],
      "min": [
        -1.0,
        -1.0,
        -1.0
      ],
      "type": "VEC3"
    },
    {
      "bufferView": 3,
      "byteOffset": 3335328,
      "componentType": 5126,
      "count": 65532,
      "max": [
        1.0,
        1.0,
        1.0,
        1.0
      ],
      "min": [
        0.9960784316062927,
        0.9960784316062927,
        0.9960784316062927,
        0.9960784316062927
      ],
      "type": "VEC4"
    },
    {
      "bufferView": 1,
      "byteOffset": 1667664,
      "componentType": 5126,
      "count": 65532,
      "max": [
        0.999755859375,
        0.9997479915618896
      ],
      "min": [
        0.0006581989000551403,
        0.0006582073983736336
      ],
      "type": "VEC2"
    },
    {
      "bufferView": 0,
      "byteOffset": 2084256,
      "componentType": 5125,
      "count": 145575,
      "type": "SCALAR"
    },
    {
      "bufferView": 2,
      "byteOffset": 6575760,
      "componentType": 5126,
      "count": 11677,
      "max": [
        1.5097647905349731,
        -3.7078323364257813,
        5.146726131439209
      ],
      "min": [
        -1.8865684270858765,
        -9.355652809143066,
        -0.003037393093109131
      ],
      "type": "VEC3"
    },
    {
      "bufferView": 2,
      "byteOffset": 6715884,
      "componentType": 5126,
      "count": 11677,
      "max": [
        1.0,
        1.0,
        1.0
      ],
      "min": [
        -1.0,
        -1.0,
        -1.0
      ],
      "type": "VEC3"
    },
    {
      "bufferView": 3,
      "byteOffset": 4383840,
      "componentType": 5126,
      "count": 11677,
      "max": [
        1.0,
        1.0,
        1.0,
        1.0
      ],
      "min": [
        1.0,
        1.0,
        1.0,
        1.0
      ],
      "type": "VEC4"
    },
    {
      "bufferView": 1,
      "byteOffset": 2191920,
      "componentType": 5126,
      "count": 11677,
      "max": [
        0.9970111846923828,
        0.9997481107711792
      ],
      "min": [
        0.0006581989000551403,
        0.0006582073983736336
      ],
      "type": "VEC2"
    },
    {
      "bufferView": 0,
      "byteOffset": 2666556,
      "componentType": 5125,
      "count": 22470,
      "type": "SCALAR"
    },
    {
      "bufferView": 2,
      "byteOffset": 6856008,
      "componentType": 5126,
      "count": 65534,
      "max": [
        1.810651421546936,
        4.317289352416992,
        5.151406288146973
      ],
      "min": [
        -1.7814438343048096,
        -6.680062294006348,
        0.0
      ],
      "type": "VEC3"
    },
    {
      "bufferView": 2,
      "byteOffset": 7642416,
      "componentType": 5126,
      "count": 65534,
      "max": [
        1.0,
        1.0,
        1.0
      ],
      "min": [
        -1.0,
        -1.0,
        -1.0
      ],
      "type": "VEC3"
    },
    {
      "bufferView": 3,
      "byteOffset": 4570672,
      "componentType": 5126,
      "count": 65534,
      "max": [
        1.0,
        1.0,
        1.0,
        1.0
      ],
      "min": [
        0.9960784316062927,
        0.9960784316062927,
        0.9960784316062927,
        0.9960784316062927
      ],
      "type": "VEC4"
    },
    {
      "bufferView": 1,
      "byteOffset": 2285336,
      "componentType": 5126,
      "count": 65534,
      "max": [
        0.9996610879898071,
        0.999755859375
      ],
      "min": [
        0.0006595227750949562,
        0.0006595312734134495
      ],
      "type": "VEC2"
    },
    {
      "bufferView": 0,
      "byteOffset": 2756436,
      "componentType": 5125,
      "count": 145581,
      "type": "SCALAR"
    },
    {
      "bufferView": 2,
      "byteOffset": 8428824,
      "componentType": 5126,
      "count": 11684,
      "max": [
        1.4579609632492065,
        4.200559616088867,
        5.149763107299805
      ],
      "min": [
        -1.4702728986740112,
        -4.323537349700928,
        0.001394510269165039
      ],
      "type": "VEC3"
    },
    {
      "bufferView": 2,
      "byteOffset": 8569032,
      "componentType": 5126,
      "count": 11684,
      "max": [
        1.0,
        1.0,
        1.0
      ],
      "min": [
        -1.0,
        -1.0,
        -1.0
      ],
      "type": "VEC3"
    },
    {
      "bufferView": 3,
      "byteOffset": 5619216,
      "componentType": 5126,
      "count": 11684,
      "max": [
        1.0,
        1.0,
        1.0,
        1.0
      ],
      "min": [
        1.0,
        1.0,
        1.0,
        1.0
      ],
      "type": "VEC4"
    },
    {
      "bufferView": 1,
      "byteOffset": 2809608,
      "componentType": 5126,
      "count": 11684,
      "max": [
        0.9996398687362671,
        0.999755859375
      ],
      "min": [
        0.0006595227750949562,
        0.0006595227750949562
      ],
      "type": "VEC2"
    },
    {
      "bufferView": 0,
      "byteOffset": 3338760,
      "componentType": 5125,
      "count": 22467,
      "type": "SCALAR"
    },
    {
      "bufferView": 2,
      "byteOffset": 8709240,
      "componentType": 5126,
      "count": 4,
      "max": [
        2.9806060791015625,
        3.944959878921509,
        0.0
      ],
      "min": [
        -13.99713134765625,
        -6.473792552947998,
        0.0
      ],
      "type": "VEC3"
    },
    {
      "bufferView": 2,
      "byteOffset": 8709288,
      "componentType": 5126,
      "count": 4,
      "max": [
        0.0,
        0.0,
        1.0
      ],
      "min": [
        0.0,
        0.0,
        1.0
      ],
      "type": "VEC3"
    },
    {
      "bufferView": 1,
      "byteOffset": 2903080,
      "componentType": 5126,
      "count": 4,
      "max": [
        0.6136715412139893,
        1.0
      ],
      "min": [
        2.6503672145850032e-08,
        2.6824437782124733e-08
      ],
      "type": "VEC2"
    },
    {
      "bufferView": 0,
      "byteOffset": 3428628,
      "componentType": 5125,
      "count": 6,
      "type": "SCALAR"
    }
  ],
  "asset": {
    "extras": {
      "author": "carlcapu9 (https://sketchfab.com/carlcapu9)",
      "license": "CC-BY-4.0 (http://creativecommons.org/licenses/by/4.0/)",
      "source": "https://sketchfab.com/3d-models/cartoon-cyberpunk-city-alley-178a82ca4d22461b9e9a66ec6c900e77",
      "title": "Cartoon Cyberpunk City Alley"
    },
    "generator": "Sketchfab-16.73.0",
    "version": "2.0"
  },
  "bufferViews": [
    {
      "buffer": 0,
      "byteLength": 3428652,
      "name": "floatBufferViews",
      "target": 34963
    },
    {
      "buffer": 0,
      "byteLength": 2903112,
      "byteOffset": 3428652,
      "byteStride": 8,
      "name": "floatBufferViews",
      "target": 34962
    },
    {
      "buffer": 0,
      "byteLength": 8709336,
      "byteOffset": 6331764,
      "byteStride": 12,
      "name": "floatBufferViews",
      "target": 34962
    },
    {
      "buffer": 0,
      "byteLength": 5806160,
      "byteOffset": 15041100,
      "byteStride": 16,
      "name": "floatBufferViews",
      "target": 34962
    }
  ],
  "buffers": [
    {
      "byteLength": 20847260,
      "uri": "scene.bin"
    }
  ],
  "extensionsUsed": [
    "KHR_materials_unlit"
  ],
  "images": [
    {
      "uri": "textures/Building_2_baseColor.png"
    },
    {
      "uri": "textures/Glass_baseColor.png"
    },
    {
      "uri": "textures/Cables_Material_baseColor.png"
    },
    {
      "uri": "textures/Building_1_baseColor.png"
    },
    {
      "uri": "textures/Building_3_baseColor.png"
    },
    {
      "uri": "textures/Terrain_baseColor.png"
    }
  ],
  "materials": [
    {
      "doubleSided": true,
      "extensions": {
        "KHR_materials_unlit": {}
      },
      "name": "Building_2",
      "pbrMetallicRoughness": {
        "baseColorTexture": {
          "index": 0
        },
        "metallicFactor": 0.0
      }
    },
    {
      "doubleSided": true,
      "extensions": {
        "KHR_materials_unlit": {}
      },
      "name": "Glass",
      "pbrMetallicRoughness": {
        "baseColorTexture": {
          "index": 1
        },
        "metallicFactor": 0.0
      }
    },
    {
      "doubleSided": true,
      "extensions": {
        "KHR_materials_unlit": {}
      },
      "name": "Cables_Material",
      "pbrMetallicRoughness": {
        "baseColorTexture": {
          "index": 2
        },
        "metallicFactor": 0.0
      }
    },
    {
      "doubleSided": true,
      "extensions": {
        "KHR_materials_unlit": {}
      },
      "name": "Building_1",
      "pbrMetallicRoughness": {
        "baseColorTexture": {
          "index": 3
        },
        "metallicFactor": 0.0
      }
    },
    {
      "doubleSided": true,
      "extensions": {
        "KHR_materials_unlit": {}
      },
      "name": "Building_3",
      "pbrMetallicRoughness": {
        "baseColorTexture": {
          "index": 4
        },
        "metallicFactor": 0.0
      }
    },
    {
      "doubleSided": true,
      "extensions": {
        "KHR_materials_unlit": {}
      },
      "name": "Terrain",
      "pbrMetallicRoughness": {
        "baseColorTexture": {
          "index": 5
        },
        "metallicFactor": 0.0
      }
    }
  ],
  "meshes": [
    {
      "name": "Cube.001_Building_2_0",
      "primitives": [
        {
          "attributes": {
            "COLOR_0": 2,
            "NORMAL": 1,
            "POSITION": 0,
            "TEXCOORD_0": 3
          },
          "indices": 4,
          "material": 0,
          "mode": 4
        }
      ]
    },
    {
      "name": "Cube.001_Building_2_0",
      "primitives": [
        {
          "attributes": {
            "COLOR_0": 7,
            "NORMAL": 6,
            "POSITION": 5,
            "TEXCOORD_0": 8
          },
          "indices": 9,
          "material": 0,
          "mode": 4
        }
      ]
    },
    {
      "name": "Cube.002_Glass_0",
      "primitives": [
        {
          "attributes": {
            "COLOR_0": 12,
            "NORMAL": 11,
            "POSITION": 10,
            "TEXCOORD_0": 13
          },
          "indices": 14,
          "material": 1,
          "mode": 4
        }
      ]
    },
    {
      "name": "Cube.019_Cables Material_0",
      "primitives": [
        {
          "attributes": {
            "COLOR_0": 17,
            "NORMAL": 16,
            "POSITION": 15,
            "TEXCOORD_0": 18
          },
          "indices": 19,
          "material": 2,
          "mode": 4
        }
      ]
    },
    {
      "name": "Cube.019_Cables Material_0",
      "primitives": [
        {
          "attributes": {
            "COLOR_0": 22,
            "NORMAL": 21,
            "POSITION": 20,
            "TEXCOORD_0": 23
          },
          "indices": 24,
          "material": 2,
          "mode": 4
        }
      ]
    },
    {
      "name": "Cube.023_Building_1_0",
      "primitives": [
        {
          "attributes": {
            "COLOR_0": 27,
            "NORMAL": 26,
            "POSITION": 25,
            "TEXCOORD_0": 28
          },
          "indices": 29,
          "material": 3,
          "mode": 4
        }
      ]
    },
    {
      "name": "Cube.023_Building_1_0",
      "primitives": [
        {
          "attributes": {
            "COLOR_0": 32,
            "NORMAL": 31,
            "POSITION": 30,
            "TEXCOORD_0": 33
          },
          "indices": 34,
          "material": 3,
          "mode": 4
        }
      ]
    },
    {
      "name": "Cube.029_Building_3_0",
      "primitives": [
        {
          "attributes": {
            "COLOR_0": 37,
            "NORMAL": 36,
            "POSITION": 35,
            "TEXCOORD_0": 38
          },
          "indices": 39,
          "material": 4,
          "mode": 4
        }
      ]
    },
    {
      "name": "Cube.029_Building_3_0",
      "primitives": [
        {
          "attributes": {
            "COLOR_0": 42,
            "NORMAL": 41,
            "POSITION": 40,
            "TEXCOORD_0": 43
          },
          "indices": 44,
          "material": 4,
          "mode": 4
        }
      ]
    },
    {
      "name": "Plane_Terrain_0",
      "primitives": [
        {
          "attributes": {
            "NORMAL": 46,
            "POSITION": 45,
            "TEXCOORD_0": 47
          },
          "indices": 48,
          "material": 5,
          "mode": 4
        }
      ]
    }
  ],
  "nodes": [
    {
      "children": [
        1
      ],
      "matrix": [
        1.0,
        0.0,
        0.0,
        0.0,
        0.0,
        2.220446049250313e-16,
        -1.0,
        0.0,
        0.0,
        1.0,
        2.220446049250313e-16,
        0.0,
        0.0,
        0.0,
        0.0,
        1.0
      ],
      "name": "Sketchfab_model"
    },
    {
      "children": [
        2
      ],
      "matrix": [
        0.009999999776482582,
        0.0,
        0.0,
        0.0,
        0.0,
        0.0,
        0.009999999776482582,
        0.0,
        0.0,
        -0.009999999776482582,
        0.0,
        0.0,
        0.0,
        0.0,
        0.0,
        1.0
      ],
      "name": "3e2d0348ed60430bb7989a495e924ced.fbx"
    },
    {
      "children": [
        3,
        6,
        8,
        11,
        14,
        17
      ],
      "name": "RootNode"
    },
    {
      "children": [
        4,
        5
      ],
      "matrix": [
        100.0,
        0.0,
        0.0,
        0.0,
        -0.0,
        -1.629206793918314e-05,
        -99.99999999999868,
        0.0,
        0.0,
        99.99999999999868,
        -1.629206793918314e-05,
        0.0,
        -268.8318176269531,
        -100.0,
        -285.5100402832031,
        1.0
      ],
      "name": "Cube.001"
    },
    {
      "mesh": 0,
      "name": "Cube.001_Building_2_0"
    },
    {
      "mesh": 1,
      "name": "Cube.001_Building_2_0"
    },
    {
      "children": [
        7
      ],
      "matrix": [
        100.0,
        0.0,
        0.0,
        0.0,
        -0.0,
        -1.629206793918314e-05,
        -99.99999999999868,
        0.0,
        0.0,
        99.99999999999868,
        -1.629206793918314e-05,
        0.0,
        -268.8318176269531,
        -100.0,
        -285.5100402832031,
        1.0
      ],
      "name": "Cube.002"
    },
    {
      "mesh": 2,
      "name": "Cube.002_Glass_0"
    },
    {
      "children": [
        9,
        10
      ],
      "matrix": [
        7.549789959870878e-06,
        0.0,
        99.9999999999997,
        0.0,
        99.99999999999838,
        -1.6292067961387602e-05,
        -7.549789954319763e-06,
        0.0,
        1.6292067972489832e-05,
        99.99999999999866,
        -1.2212453270876722e-12,
        0.0,
        -540.9869384765625,
        -100.13945007324219,
        320.87506103515625,
        1.0
      ],
      "name": "Cube.019"
    },
    {
      "mesh": 3,
      "name": "Cube.019_Cables Material_0"
    },
    {
      "mesh": 4,
      "name": "Cube.019_Cables Material_0"
    },
    {
      "children": [
        12,
        13
      ],
      "matrix": [
        4.371139006309477e-06,
        -1.1102230246251565e-14,
        -99.99999999999991,
        0.0,
        -99.99999999999982,
        -4.371139006309477e-06,
        -4.371139011860592e-06,
        0.0,
        -4.371139011860592e-06,
        99.99999999999991,
        -1.9984014443252818e-13,
        0.0,
        -1050.0147705078125,
        -99.83570861816406,
        298.2734375,
        1.0
      ],
      "name": "Cube.023"
    },
    {
      "mesh": 5,
      "name": "Cube.023_Building_1_0"
    },
    {
      "mesh": 6,
      "name": "Cube.023_Building_1_0"
    },
    {
      "children": [
        15,
        16
      ],
      "matrix": [
        100.0,
        0.0,
        0.0,
        0.0,
        -0.0,
        -1.629206793918314e-05,
        -99.99999999999868,
        0.0,
        0.0,
        99.99999999999868,
        -1.629206793918314e-05,
        0.0,
        -1570.010498046875,
        -100.13945007324219,
        -111.9007797241211,
        1.0
      ],
      "name": "Cube.029"
    },
    {
      "mesh": 7,
      "name": "Cube.029_Building_3_0"
    },
    {
      "mesh": 8,
      "name": "Cube.029_Building_3_0"
    },
    {
      "children": [
        18
      ],
      "matrix": [
        118.83159637451172,
        0.0,
        0.0,
        0.0,
        -0.0,
        -1.9360124414551338e-05,
        -118.83159637451016,
        0.0,
        0.0,
        118.83159637451016,
        -1.9360124414551338e-05,
        0.0,
        -262.9019470214844,
        -100.0,
        -119.9386215209961,
        1.0
      ],
      "name": "Plane"
    },
    {
      "mesh": 9,
      "name": "Plane_Terrain_0"
    }
  ],
  "samplers": [
    {
      "magFilter": 9729,
      "minFilter": 9987,
      "wrapS": 10497,
      "wrapT": 10497
    }
  ],
  "scene": 0,
  "scenes": [
    {
      "name": "Sketchfab_Scene",
      "nodes": [
        0
      ]
    }
  ],
  "textures": [
    {
      "sampler": 0,
      "source": 0
    },
    {
      "sampler": 0,
      "source": 1
    },
    {
      "sampler": 0,
      "source": 2
    },
    {
      "sampler": 0,
      "source": 3
    },
    {
      "sampler": 0,
      "source": 4
    },
    {
      "sampler": 0,
      "source": 5
    }
  ]
}
